<svg xmlns="http://www.w3.org/2000/svg" width="278" height="94" viewBox="0 0 278 94" fill="none">
<path d="M0 10C0 4.47716 4.47715 0 10 0H268C273.523 0 278 4.47715 278 10V38.5607C278 48.7795 257.81 57.2937 247.596 56.9667C237.115 56.631 224.028 61.1443 208.5 75.709C181.683 100.862 161.79 90.9072 150.092 78.7548C144.212 72.6463 131.645 72.5258 126.043 78.8899C113.731 92.8757 93.0572 105.595 69.5 75.709C53.1567 54.975 38.0158 52.0758 26.066 55.5057C16.5099 58.2485 0 52.0646 0 42.1227V10Z" fill="#FE6F07" fill-opacity="0.3"/>
</svg>